<?xml version="1.0" encoding="UTF-8" standalone="no"?>
<!-- Created with Inkscape (http://www.inkscape.org/) -->

<svg
   xmlns:dc="http://purl.org/dc/elements/1.1/"
   xmlns:cc="http://creativecommons.org/ns#"
   xmlns:rdf="http://www.w3.org/1999/02/22-rdf-syntax-ns#"
   xmlns:svg="http://www.w3.org/2000/svg"
   xmlns="http://www.w3.org/2000/svg"
   xmlns:sodipodi="http://sodipodi.sourceforge.net/DTD/sodipodi-0.dtd"
   xmlns:inkscape="http://www.inkscape.org/namespaces/inkscape"
   width="128"
   height="128"
   id="svg3540"
   version="1.1"
   inkscape:version="0.48.3.1 r9886"
   sodipodi:docname="logo.svg"
   inkscape:export-filename="/home/toon/unief/research/code/toon/tamkin/doc/logo.png"
   inkscape:export-xdpi="90"
   inkscape:export-ydpi="90">
  <defs
     id="defs3542" />
  <sodipodi:namedview
     id="base"
     pagecolor="#ffffff"
     bordercolor="#666666"
     borderopacity="1.0"
     inkscape:pageopacity="0"
     inkscape:pageshadow="2"
     inkscape:zoom="6.4140625"
     inkscape:cx="64"
     inkscape:cy="64"
     inkscape:document-units="px"
     inkscape:current-layer="layer1"
     showgrid="false"
     units="px"
     fit-margin-top="0.5"
     fit-margin-left="0.5"
     fit-margin-bottom="0.5"
     fit-margin-right="0.5"
     inkscape:window-width="1215"
     inkscape:window-height="1000"
     inkscape:window-x="65"
     inkscape:window-y="24"
     inkscape:window-maximized="1" />
  <metadata
     id="metadata3545">
    <rdf:RDF>
      <cc:Work
         rdf:about="">
        <dc:format>image/svg+xml</dc:format>
        <dc:type
           rdf:resource="http://purl.org/dc/dcmitype/StillImage" />
        <dc:title></dc:title>
      </cc:Work>
    </rdf:RDF>
  </metadata>
  <g
     inkscape:label="Layer 1"
     inkscape:groupmode="layer"
     id="layer1"
     transform="translate(-319.43916,-459.19168)">
    <g
       id="g4683"
       transform="matrix(1.5534486,0,0,1.5534486,-510.03034,-257.09935)">
      <path
         id="path3874"
         style="fill:#1379c8;fill-opacity:0.5;fill-rule:evenodd;stroke:none"
         d="m 546.75045,528.76534 23.97863,13.05888 31.44437,-9.52225 -23.45287,-12.70838 -31.97013,9.17175 z"
         inkscape:connector-curvature="0" />
      <path
         id="path3876"
         style="fill:#1379c8;fill-opacity:0.5;fill-rule:evenodd;stroke:none"
         d="m 579.15045,486.53834 0,32.30688 23.24088,12.91137 0,-32.89675 -23.24088,-12.3215 z"
         inkscape:connector-curvature="0" />
      <path
         id="path3878"
         style="fill:#1379c8;fill-opacity:0.5;fill-rule:evenodd;stroke:none"
         d="m 546.71045,528.07022 0,-32.30688 31.61225,-8.88762 -0.0201,31.90537 -31.59212,9.28913 z"
         inkscape:connector-curvature="0" />
      <g
         transform="matrix(1.6751625,0,0,-1.6751625,142.36308,1173.552)"
         id="g3880">
        <path
           id="path3882"
           style="fill:none;stroke:#231f20;stroke-width:0.4402;stroke-linecap:butt;stroke-linejoin:miter;stroke-miterlimit:22.92558479;stroke-opacity:1;stroke-dasharray:none"
           d="m 249.1637,393.5608 7.215,0.8512"
           inkscape:connector-curvature="0" />
      </g>
      <path
         id="path3884"
         style="fill:#e9e9e9;fill-opacity:1;fill-rule:evenodd;stroke:#231f20;stroke-width:0.70862502;stroke-linecap:butt;stroke-linejoin:miter;stroke-miterlimit:22.92558479;stroke-opacity:1;stroke-dasharray:none"
         d="m 557.93033,509.96422 c 2.29075,0 4.14812,1.9155 4.14812,4.27787 0,2.36238 -1.85737,4.27788 -4.14812,4.27788 -2.29075,0 -4.14825,-1.9155 -4.14825,-4.27788 0,-2.36237 1.8575,-4.27787 4.14825,-4.27787 z"
         inkscape:connector-curvature="0" />
      <g
         transform="matrix(1.6751625,0,0,-1.6751625,142.36308,1173.552)"
         id="g3886">
        <path
           id="path3888"
           style="fill:none;stroke:#231f20;stroke-width:0.4402;stroke-linecap:butt;stroke-linejoin:miter;stroke-miterlimit:22.92558479;stroke-opacity:1;stroke-dasharray:none"
           d="m 259.4117,394.4682 6.7238,-2.503"
           inkscape:connector-curvature="0" />
      </g>
      <path
         id="path3890"
         style="fill:#e9e9e9;fill-opacity:1;fill-rule:evenodd;stroke:#231f20;stroke-width:0.70862502;stroke-linecap:butt;stroke-linejoin:miter;stroke-miterlimit:22.92558479;stroke-opacity:1;stroke-dasharray:none"
         d="m 588.71558,513.11597 c 2.29075,0 4.14812,1.91562 4.14812,4.27787 0,2.36238 -1.85737,4.27825 -4.14812,4.27825 -2.29075,0 -4.14813,-1.91587 -4.14813,-4.27825 0,-2.36225 1.85738,-4.27787 4.14813,-4.27787 z"
         inkscape:connector-curvature="0" />
      <g
         transform="matrix(1.61145,-0.4576,-0.4576,-1.61145,142.36308,1173.552)"
         id="g3892">
        <path
           id="path3894"
           style="fill:none;stroke:#231f20;stroke-width:0.4402;stroke-linecap:butt;stroke-linejoin:miter;stroke-miterlimit:22.92558479;stroke-opacity:1;stroke-dasharray:none"
           d="m 356.1817,309.5195 -1.097,-7.9112"
           inkscape:connector-curvature="0" />
      </g>
      <path
         id="path3896"
         style="fill:#393536;fill-opacity:1;fill-rule:evenodd;stroke:#231f20;stroke-width:0.70862502;stroke-linecap:butt;stroke-linejoin:miter;stroke-miterlimit:22.92558479;stroke-opacity:1;stroke-dasharray:none"
         d="m 575.11845,508.01797 c 2.29075,0 4.14825,1.9155 4.14825,4.27775 0,2.36237 -1.8575,4.27787 -4.14825,4.27787 -2.29075,0 -4.14812,-1.9155 -4.14812,-4.27787 0,-2.36225 1.85737,-4.27775 4.14812,-4.27775 z"
         inkscape:connector-curvature="0" />
      <g
         transform="matrix(1.6751625,0,0,-1.6751625,142.36308,1173.552)"
         id="g3898">
        <path
           id="path3900"
           style="fill:none;stroke:#231f20;stroke-width:0.4402;stroke-linecap:butt;stroke-linejoin:miter;stroke-miterlimit:22.92558479;stroke-opacity:1;stroke-dasharray:none"
           d="m 260.066,407.0531 -1.4216,-10.3515"
           inkscape:connector-curvature="0" />
      </g>
      <path
         id="path3902"
         style="fill:#e9e9e9;fill-opacity:1;fill-rule:evenodd;stroke:#231f20;stroke-width:0.70862502;stroke-linecap:butt;stroke-linejoin:miter;stroke-miterlimit:22.92558479;stroke-opacity:1;stroke-dasharray:none"
         d="m 576.46208,519.82284 c 2.29075,0 4.1485,1.9155 4.1485,4.27775 0,2.36275 -1.85775,4.27825 -4.1485,4.27825 -2.29075,0 -4.14813,-1.9155 -4.14813,-4.27825 0,-2.36225 1.85738,-4.27775 4.14813,-4.27775 z"
         inkscape:connector-curvature="0" />
      <path
         id="path3904"
         style="fill:#1379c8;fill-opacity:0.5;fill-rule:evenodd;stroke:none"
         d="m 546.73483,495.76197 0.118,32.24762 23.53612,12.91188 0,-32.602 -23.65412,-12.5575 z"
         inkscape:connector-curvature="0" />
      <path
         id="path3906"
         style="fill:#1379c8;fill-opacity:0.5;fill-rule:evenodd;stroke:none"
         d="m 602.38108,498.71997 0,32.89712 -31.14925,9.14163 0,-32.60188 31.14925,-9.43687 z"
         inkscape:connector-curvature="0" />
      <path
         id="path3908"
         style="fill:#1379c8;fill-opacity:0.5;fill-rule:evenodd;stroke:none"
         d="m 548.33283,495.36897 22.38137,12.20987 30.854,-9.22737 -22.44287,-11.8085 -30.7925,8.826 z"
         inkscape:connector-curvature="0" />
      <g
         transform="matrix(1.6751625,0,0,-1.6751625,142.36308,1173.552)"
         id="g3910">
        <path
           id="path3912"
           style="fill:none;stroke:#231f20;stroke-width:0.4402;stroke-linecap:butt;stroke-linejoin:miter;stroke-miterlimit:22.92558479;stroke-opacity:1;stroke-dasharray:none"
           d="m 273.1292,419.9306 -0.3371,-6.669"
           inkscape:connector-curvature="0" />
      </g>
      <g
         transform="matrix(1.6751625,0,0,-1.6751625,142.36308,1173.552)"
         id="g3914">
        <path
           id="path3916"
           style="fill:none;stroke:#231f20;stroke-width:0.4402;stroke-linecap:butt;stroke-linejoin:miter;stroke-miterlimit:22.92558479;stroke-opacity:1;stroke-dasharray:none"
           d="m 262.0939,409.6831 9.0686,1.4618"
           inkscape:connector-curvature="0" />
      </g>
      <g
         transform="matrix(1.6751625,0,0,-1.6751625,142.36308,1173.552)"
         id="g3918">
        <path
           id="path3920"
           style="fill:none;stroke:#231f20;stroke-width:0.4402;stroke-linecap:butt;stroke-linejoin:miter;stroke-miterlimit:22.92558479;stroke-opacity:1;stroke-dasharray:none"
           d="m 253.9239,417.3406 4.6542,-5.6922"
           inkscape:connector-curvature="0" />
      </g>
      <path
         id="path3922"
         style="fill:#393536;fill-opacity:1;fill-rule:evenodd;stroke:#231f20;stroke-width:0.70862502;stroke-linecap:butt;stroke-linejoin:miter;stroke-miterlimit:22.92558479;stroke-opacity:1;stroke-dasharray:none"
         d="m 578.01558,483.11622 c 2.29075,0 4.1485,1.9155 4.1485,4.27787 0,2.36238 -1.85775,4.27788 -4.1485,4.27788 -2.2905,0 -4.14825,-1.9155 -4.14825,-4.27788 0,-2.36237 1.85775,-4.27787 4.14825,-4.27787 z"
         inkscape:connector-curvature="0" />
      <path
         id="path3924"
         style="fill:#b3232c;fill-opacity:1;fill-rule:evenodd;stroke:#231f20;stroke-width:0.70862502;stroke-linecap:butt;stroke-linejoin:miter;stroke-miterlimit:22.92558479;stroke-opacity:1;stroke-dasharray:none"
         d="m 565.5172,468.17159 c 2.29038,0 4.14813,1.91563 4.14813,4.27788 0,2.36237 -1.85775,4.27825 -4.14813,4.27825 -2.29075,0 -4.1485,-1.91588 -4.1485,-4.27825 0,-2.36225 1.85775,-4.27788 4.1485,-4.27788 z"
         inkscape:connector-curvature="0" />
      <path
         id="path3926"
         style="fill:#b3232c;fill-opacity:1;fill-rule:evenodd;stroke:#231f20;stroke-width:0.70862502;stroke-linecap:butt;stroke-linejoin:miter;stroke-miterlimit:22.92558479;stroke-opacity:1;stroke-dasharray:none"
         d="m 599.03233,479.86634 c 2.29075,0 4.1485,1.9155 4.1485,4.27788 0,2.36225 -1.85775,4.27775 -4.1485,4.27775 -2.29075,0 -4.14813,-1.9155 -4.14813,-4.27775 0,-2.36238 1.85738,-4.27788 4.14813,-4.27788 z"
         inkscape:connector-curvature="0" />
      <g
         transform="matrix(1.6751625,0,0,-1.6751625,142.36308,1173.552)"
         id="g3928">
        <path
           id="path3930"
           style="fill:none;stroke:#231f20;stroke-width:0.4402;stroke-linecap:butt;stroke-linejoin:miter;stroke-miterlimit:22.92558479;stroke-opacity:1;stroke-dasharray:none"
           d="m 260.066,407.0531 -0.6134,-4.4345"
           inkscape:connector-curvature="0" />
      </g>
      <g
         transform="matrix(-0.2052625,-0.8023875,-0.8023875,0.2052625,142.36308,1173.552)"
         id="g3932">
        <path
           id="path3934"
           style="fill:none;stroke:#918f90;stroke-width:0.56690001;stroke-linecap:round;stroke-linejoin:miter;stroke-miterlimit:22.92558479;stroke-opacity:1;stroke-dasharray:none"
           d="m 675.5085,-733.3858 c 1.2169,-0.5618 3.3273,-3.3956 2.7859,-6.2685"
           inkscape:connector-curvature="0" />
      </g>
      <g
         transform="matrix(-0.465475,-0.8961875,-0.8961875,0.465475,142.36308,1173.552)"
         id="g3936">
        <path
           id="path3938"
           style="fill:none;stroke:#918f90;stroke-width:0.56690001;stroke-linecap:round;stroke-linejoin:miter;stroke-miterlimit:22.92558479;stroke-opacity:1;stroke-dasharray:none"
           d="m 400.5054,-711.2256 c 1.2172,-0.5616 3.4001,-2.8489 2.8584,-5.7215"
           inkscape:connector-curvature="0" />
      </g>
      <g
         transform="matrix(0.2686375,0.6252375,0.6252375,-0.2686375,142.36308,1173.552)"
         id="g3940">
        <path
           id="path3942"
           style="fill:none;stroke:#918f90;stroke-width:0.56690001;stroke-linecap:round;stroke-linejoin:miter;stroke-miterlimit:22.92558479;stroke-opacity:1;stroke-dasharray:none"
           d="m -658.8621,1023.66 c 0.6849,-0.3163 1.9298,-1.2515 2.2711,-2.7071"
           inkscape:connector-curvature="0" />
      </g>
      <g
         transform="matrix(0.8772875,-0.0966375,-0.0966375,-0.8772875,142.36308,1173.552)"
         id="g3944">
        <path
           id="path3946"
           style="fill:none;stroke:#918f90;stroke-width:0.56690001;stroke-linecap:round;stroke-linejoin:miter;stroke-miterlimit:22.92558479;stroke-opacity:1;stroke-dasharray:none"
           d="m 601.3344,706.7404 c 1.2166,-0.5618 3.3998,-2.8488 2.8581,-5.7212"
           inkscape:connector-curvature="0" />
      </g>
      <g
         transform="matrix(0.693125,0.45335,0.45335,-0.693125,142.36308,1173.552)"
         id="g3948">
        <path
           id="path3950"
           style="fill:none;stroke:#918f90;stroke-width:0.56690001;stroke-linecap:round;stroke-linejoin:miter;stroke-miterlimit:22.92558479;stroke-opacity:1;stroke-dasharray:none"
           d="m 20.6453,989.646 c 0.6846,-0.3167 1.652,-1.3513 2.2705,-2.7074"
           inkscape:connector-curvature="0" />
      </g>
      <g
         transform="matrix(0.4017625,0.5707625,0.5707625,-0.4017625,142.36308,1173.552)"
         id="g3952">
        <path
           id="path3954"
           style="fill:none;stroke:#918f90;stroke-width:0.56690001;stroke-linecap:round;stroke-linejoin:miter;stroke-miterlimit:22.92558479;stroke-opacity:1;stroke-dasharray:none"
           d="m -425.5191,1109.5671 c 1.2169,-0.5624 3.3278,-3.396 2.7856,-6.2689"
           inkscape:connector-curvature="0" />
      </g>
      <g
         transform="matrix(0.6721,-0.1066375,-0.1066375,-0.6721,142.36308,1173.552)"
         id="g3956">
        <path
           id="path3958"
           style="fill:none;stroke:#918f90;stroke-width:0.56690001;stroke-linecap:round;stroke-linejoin:miter;stroke-miterlimit:22.92558479;stroke-opacity:1;stroke-dasharray:none"
           d="m 782.1573,927.4399 c 0.6848,-0.3163 1.9298,-1.2515 2.2708,-2.7073"
           inkscape:connector-curvature="0" />
      </g>
      <g
         transform="matrix(0.6520375,-0.2490625,-0.2490625,-0.6520375,142.36308,1173.552)"
         id="g3960">
        <path
           id="path3962"
           style="fill:none;stroke:#918f90;stroke-width:0.56690001;stroke-linecap:round;stroke-linejoin:miter;stroke-miterlimit:22.92558479;stroke-opacity:1;stroke-dasharray:none"
           d="m 929.9452,728.3001 c 1.2175,-0.5615 3.3279,-3.3959 2.7862,-6.2685"
           inkscape:connector-curvature="0" />
      </g>
      <path
         id="path3964"
         style="fill:#e9e9e9;fill-opacity:1;fill-rule:evenodd;stroke:#231f20;stroke-width:0.70862502;stroke-linecap:butt;stroke-linejoin:miter;stroke-miterlimit:22.92558479;stroke-opacity:1;stroke-dasharray:none"
         d="m 599.9752,464.29672 c 2.29075,0 4.14813,1.9155 4.14813,4.27775 0,2.36275 -1.85738,4.27825 -4.14813,4.27825 -2.29075,0 -4.1485,-1.9155 -4.1485,-4.27825 0,-2.36225 1.85775,-4.27775 4.1485,-4.27775 z"
         inkscape:connector-curvature="0" />
      <g
         transform="matrix(0.806675,0.1876875,0.1876875,-0.806675,142.36308,1173.552)"
         id="g3966">
        <path
           id="path3968"
           style="fill:none;stroke:#918f90;stroke-width:0.56690001;stroke-linecap:round;stroke-linejoin:miter;stroke-miterlimit:22.92558479;stroke-opacity:1;stroke-dasharray:none"
           d="m 350.3341,962.0943 c 1.217,-0.5615 3.3276,-3.3956 2.7862,-6.2682"
           inkscape:connector-curvature="0" />
      </g>
      <g
         transform="matrix(1.0098625,0,0,-1.0098625,142.36308,1173.552)"
         id="g3970">
        <path
           id="path3972"
           style="fill:none;stroke:#918f90;stroke-width:0.56690001;stroke-linecap:round;stroke-linejoin:miter;stroke-miterlimit:22.92558479;stroke-opacity:1;stroke-dasharray:none"
           d="m 455.8635,703.5591 c 1.2172,-0.5619 3.4001,-2.8489 2.8581,-5.7215"
           inkscape:connector-curvature="0" />
      </g>
      <g
         transform="matrix(-0.04685,-0.8269,-0.8269,0.04685,142.36308,1173.552)"
         id="g3974">
        <path
           id="path3976"
           style="fill:none;stroke:#918f90;stroke-width:0.56690001;stroke-linecap:round;stroke-linejoin:miter;stroke-miterlimit:22.92558479;stroke-opacity:1;stroke-dasharray:none"
           d="m 822.6621,-593.8608 c 0.6843,-0.3161 1.652,-1.3513 2.2705,-2.7074"
           inkscape:connector-curvature="0" />
      </g>
      <g
         transform="matrix(-0.87695,0.0997,0.0997,0.87695,142.36308,1173.552)"
         id="g3978">
        <path
           id="path3980"
           style="fill:none;stroke:#918f90;stroke-width:0.56690001;stroke-linecap:round;stroke-linejoin:miter;stroke-miterlimit:22.92558479;stroke-opacity:1;stroke-dasharray:none"
           d="m -562.6865,-729.0814 c 1.2172,-0.5618 3.4004,-2.8488 2.8584,-5.7214"
           inkscape:connector-curvature="0" />
      </g>
      <g
         transform="matrix(-0.6947125,-0.4509125,-0.4509125,0.6947125,142.36308,1173.552)"
         id="g3982">
        <path
           id="path3984"
           style="fill:none;stroke:#918f90;stroke-width:0.56690001;stroke-linecap:round;stroke-linejoin:miter;stroke-miterlimit:22.92558479;stroke-opacity:1;stroke-dasharray:none"
           d="m 35.818,-980.0396 c 0.6846,-0.3164 1.652,-1.351 2.2709,-2.7068"
           inkscape:connector-curvature="0" />
      </g>
      <g
         transform="matrix(-0.8772875,0.0966375,0.0966375,0.8772875,142.36308,1173.552)"
         id="g3986">
        <path
           id="path3988"
           style="fill:none;stroke:#918f90;stroke-width:0.56690001;stroke-linecap:round;stroke-linejoin:miter;stroke-miterlimit:22.92558479;stroke-opacity:1;stroke-dasharray:none"
           d="m -535.8776,-672.9758 c 1.2169,-0.5618 3.4002,-2.8488 2.8582,-5.7214"
           inkscape:connector-curvature="0" />
      </g>
      <g
         transform="matrix(-0.693125,-0.45335,-0.45335,0.693125,142.36308,1173.552)"
         id="g3990">
        <path
           id="path3992"
           style="fill:none;stroke:#918f90;stroke-width:0.56690001;stroke-linecap:round;stroke-linejoin:miter;stroke-miterlimit:22.92558479;stroke-opacity:1;stroke-dasharray:none"
           d="m 19.8618,-915.7252 c 0.6848,-0.3163 1.6526,-1.351 2.2711,-2.7071"
           inkscape:connector-curvature="0" />
      </g>
    </g>
  </g>
</svg>
